<svg xmlns="http://www.w3.org/2000/svg" viewBox="0 0 120 120" role="img" aria-label="OctoFit logo">
  <defs>
    <linearGradient id="gradientIcon" x1="0" x2="1" y1="0" y2="1">
      <stop offset="0%" stop-color="#2563eb" />
      <stop offset="100%" stop-color="#9333ea" />
    </linearGradient>
  </defs>
  <rect width="120" height="120" rx="28" fill="url(#gradientIcon)" />
  <circle cx="60" cy="60" r="34" fill="#ffffff" opacity="0.12" />
  <path d="M54 42c-7.7 0-14 6.3-14 14s6.3 14 14 14 14-6.3 14-14-6.3-14-14-14zm0 6c4.4 0 8 3.6 8 8s-3.6 8-8 8-8-3.6-8-8 3.6-8 8-8z" fill="#ffffff" />
  <path d="M70 56c0 10.5-8.5 19-19 19-2.4 0-4.7-.4-6.8-1.2l4.8-7.8a11 11 0 0 0 15-15l7.8-4.8c.8 2.1 1.2 4.4 1.2 6.8z" fill="#ffffff" opacity="0.85" />
</svg>
